HIERARCHY
ROOT Hips
{
	OFFSET 0.00000 0.00000 0.00000
	CHANNELS 6 Xposition Yposition Zposition Yrotation Zrotation Xrotation 
	JOINT Lumbar
	{
		OFFSET 0 0 0
		CHANNELS 3 Zrotation Xrotation Yrotation
		JOINT Neck
		{
			OFFSET 0.00 0.2701 0.00
			CHANNELS 3 Zrotation Xrotation Yrotation
			End Site
			{
				OFFSET 0.00 0.1379 0.00
			}
		}
		JOINT RightShoulder
		{
			OFFSET 0.0119 0.2289 0.1181
			CHANNELS 3 Zrotation Xrotation Yrotation
			JOINT RightElbow
			{
				OFFSET 0.00 -0.1475 0.00
				CHANNELS 2 Zrotation Yrotation
				JOINT RightWrist
				{
					OFFSET 0.00 -0.1605 0.00
					CHANNELS 2 Zrotation Xrotation
					End Site
					{
						OFFSET 0.0040 -0.1068 0.0006
					}
				}
			}
		}
		JOINT LeftShoulder
		{
			OFFSET 0.0119 0.2289 -0.1181
			CHANNELS 3 Zrotation Xrotation Yrotation
			JOINT LeftElbow
			{
				OFFSET 0.00 -0.1475 0.00
				CHANNELS 2 Zrotation Yrotation
				JOINT LeftWrist
				{
					OFFSET 0.00 -0.1605 0.00
					CHANNELS 2 Zrotation Xrotation
					End Site
					{
						OFFSET 0.0040 -0.1068 -0.0006
					}
				}
			}
		}
	}
	JOINT RightHip
	{
		OFFSET 0.0316 -0.0424 0.0458
		CHANNELS 3 Zrotation Xrotation Yrotation
		JOINT RightKnee
		{
			OFFSET 0.00 -0.2438 0.00
			CHANNELS 1 Zrotation
			JOINT RightAnkle
			{
				OFFSET 0.00 -0.2449 0.00
				CHANNELS 3 Zrotation Xrotation Yrotation
				End Site
				{
					OFFSET 0.1237 -0.0542 0.0051
				}
			}
		}
	}
	JOINT LeftHip
	{
		OFFSET 0.0316 -0.0424 -0.0458
		CHANNELS 3 Zrotation Xrotation Yrotation
		JOINT LeftKnee
		{
			OFFSET 0.00 -0.2438 0.00
			CHANNELS 1 Zrotation
			JOINT LeftAnkle
			{
				OFFSET 0.00 -0.2449 0.00
				CHANNELS 3 Zrotation Xrotation Yrotation
				End Site
				{
					OFFSET 0.1237 -0.0542 -0.0051
				}
			}
		}
	}
}
MOTION
Frames: 20
Frame Time: 0.02
-0 0.57926 0 179.91797 0 3.01878 6.98349 -1.32377 -3.69672 -33.17174 3.78206 5.60215 25.57321 -16.30019 7.00785 11.19274 82.4045 0.15079 1.51884 27.6961 1.65581 -5.8059 7.99066 -76.29107 -3.87762 -1.36925 0.37417 1.81953 9.85311 -19.35191 11.14547 -8.85736 -12.58438 -1.65516 -3.17886 -4.50095 -13.20636 7.99995 6.42611 10.38675
0.00013 0.57927 -0.0002 179.89295 0 3.02631 7.00237 -1.31493 -3.65389 -33.72213 3.75984 5.49563 26.18151 -16.24416 7.11919 11.22676 82.37986 0.13789 1.52659 28.25202 1.74728 -6.09665 8.03668 -76.40141 -3.9469 -1.31389 0.41286 1.83836 9.89953 -19.40261 11.14205 -8.86076 -12.60602 -1.63342 -3.17749 -4.54903 -13.23175 7.98767 6.42368 10.45518
0.00027 0.57928 -0.00039 179.8679 0 3.03376 7.02078 -1.306 -3.61153 -34.26836 3.7375 5.38987 26.78537 -16.18833 7.23005 11.26041 82.35543 0.12515 1.53413 28.80388 1.83841 -6.38634 8.08242 -76.51137 -4.01573 -1.25898 0.45149 1.8572 9.9458 -19.45301 11.13856 -8.86409 -12.62751 -1.61153 -3.17606 -4.59671 -13.2573 7.9755 6.4214 10.52324
0.00041 0.57928 -0.00059 179.84276 0 3.04091 7.03789 -1.29665 -3.57085 -34.80494 3.71442 5.28613 27.3789 -16.13294 7.33998 11.29306 82.33154 0.11291 1.54056 29.34636 1.92904 -6.67479 8.12757 -76.62147 -4.08344 -1.20528 0.49009 1.87618 9.99167 -19.50263 11.13483 -8.8673 -12.64869 -1.58888 -3.17429 -4.6433 -13.28391 7.96375 6.41975 10.59025
0.00053 0.57929 -0.00079 179.81842 0 3.04959 7.06236 -1.28952 -3.5215 -35.39457 3.69524 5.17175 28.02895 -16.07543 7.45473 11.33118 82.30468 0.098 1.5525 29.94025 2.02223 -6.96998 8.17594 -76.73152 -4.15704 -1.14509 0.52863 1.89436 10.03936 -19.55628 11.13244 -8.87125 -12.67155 -1.57031 -3.17425 -4.69573 -13.30513 7.94991 6.41487 10.66256
0.00069 0.5793 -0.00098 179.79219 0 3.05507 7.07095 -1.27768 -3.49037 -35.8701 3.66783 5.07994 28.55759 -16.02234 7.55921 11.35755 82.28421 0.08876 1.553 30.42365 2.10998 -7.25053 8.21738 -76.84111 -4.21814 -1.09876 0.56743 1.91422 10.08335 -19.6014 11.12717 -8.87356 -12.6908 -1.54309 -3.17058 -4.7357 -13.3376 7.9404 6.41674 10.72376
0.00095 0.5793 -0.00116 179.76165 0 3.05128 7.03658 -1.2523 -3.51185 -36.04334 3.61598 5.05054 28.76351 -15.98138 7.63672 11.35223 82.28095 0.09554 1.51878 30.61401 2.18429 -7.49786 8.24099 -76.95632 -4.24509 -1.09023 0.60666 1.93937 10.11639 -19.62297 11.11373 -8.87181 -12.70067 -1.49068 -3.15635 -4.74141 -13.40411 7.9438 6.43881 10.7533
0.00125 0.5793 -0.00133 179.72904 0 3.04433 6.98601 -1.22223 -3.55135 -36.09923 3.55604 5.04383 28.84475 -15.94482 7.70367 11.33493 82.28421 0.10799 1.47351 30.69081 2.25294 -7.72938 8.25742 -77.07006 -4.25941 -1.09577 0.64623 1.96614 10.14585 -19.63596 11.09739 -8.86832 -12.70683 -1.42969 -3.13854 -4.73448 -13.4815 7.9514 6.46744 10.77175
0.00154 0.57931 -0.0015 179.69667 0 3.03909 6.9422 -1.19462 -3.58107 -36.20071 3.50089 5.02666 28.97507 -15.90632 7.77464 11.32255 82.28477 0.11764 1.43535 30.81195 2.32315 -7.96374 8.2763 -77.17994 -4.2793 -1.09515 0.6859 1.99179 10.17747 -19.65288 11.08248 -8.86531 -12.71428 -1.37341 -3.12273 -4.73329 -13.55204 7.95644 6.4921 10.79605
0.00181 0.57931 -0.00168 179.66708 0 3.03271 6.90084 -1.1656 -3.61732 -36.33487 3.44119 5.01024 29.13735 -15.86777 7.84889 11.31222 82.28423 0.12825 1.38854 30.96376 2.39738 -8.21635 8.29854 -77.30835 -4.29987 -1.09352 0.72456 2.01905 10.20684 -19.66962 11.06708 -8.8636 -12.72323 -1.31375 -3.10538 -4.73229 -13.63057 7.96419 6.52093 10.81724
0.00212 0.57931 -0.00185 179.63144 0 3.02795 6.85064 -1.13844 -3.64445 -36.37305 3.38888 4.99753 29.20346 -15.83014 7.91376 11.29497 82.2875 0.13816 1.35693 31.02465 2.4622 -8.42728 8.31218 -77.39852 -4.31609 -1.09735 0.76534 2.04336 10.24002 -19.68473 11.05201 -8.8588 -12.72835 -1.25906 -3.09034 -4.72769 -13.69512 7.96734 6.54265 10.84186
0.00249 0.57932 -0.002 179.57753 0 3.02844 6.77903 -1.11724 -3.64028 -36.17486 3.36032 4.99058 29.03419 -15.79569 7.95586 11.26002 82.29988 0.14519 1.37143 30.86256 2.50008 -8.52673 8.30291 -77.37735 -4.32281 -1.11262 0.81232 2.059 10.28496 -19.6974 11.03882 -8.84546 -12.72241 -1.22056 -3.08301 -4.7178 -13.71772 7.95614 6.54282 10.88226
0.00289 0.57932 -0.00215 179.51802 0 3.0307 6.69926 -1.09813 -3.62661 -35.88384 3.33923 4.98636 28.77221 -15.76166 7.98884 11.21882 82.31581 0.15125 1.4013 30.61251 2.52919 -8.58508 8.28548 -77.31877 -4.32572 -1.13288 0.86137 2.07162 10.33377 -19.70881 11.02605 -8.82913 -12.71299 -1.1873 -3.07805 -4.7044 -13.72595 7.94025 6.53562 10.92573
0.00327 0.57933 -0.0023 179.4624 0 3.03214 6.62388 -1.07823 -3.61845 -35.63574 3.31382 4.98024 28.55331 -15.72633 8.0256 11.1815 82.32999 0.15748 1.42321 30.40293 2.5638 -8.66211 8.27232 -77.28151 -4.33075 -1.15105 0.90915 2.08571 10.38063 -19.72078 11.01291 -8.81444 -12.70609 -1.15135 -3.07174 -4.69161 -13.74131 7.92691 6.53204 10.96556
0.00367 0.57934 -0.00245 179.40094 0 3.03346 6.54509 -1.05744 -3.60598 -35.38171 3.292 4.97781 28.32734 -15.69593 8.06333 11.13936 82.34501 0.16505 1.44893 30.18857 2.59158 -8.73757 8.25627 -77.22652 -4.33364 -1.16918 0.95821 2.09948 10.42833 -19.73226 11.00035 -8.79852 -12.69512 -1.1163 -3.06648 -4.68267 -13.75481 7.912 6.52773 11.01485
0.00404 0.57934 -0.0026 179.35046 0 3.03558 6.47161 -1.03912 -3.59987 -35.11797 3.2646 4.96791 28.09409 -15.6552 8.09723 11.10595 82.35901 0.16952 1.47039 29.96317 2.63187 -8.80799 8.24469 -77.19892 -4.34032 -1.18813 1.00523 2.11313 10.47505 -19.74488 10.98681 -8.78448 -12.6918 -1.08088 -3.05962 -4.66486 -13.76825 7.89913 6.52287 11.04486
0.00438 0.57936 -0.00273 179.33092 0 3.03892 6.41554 -1.0266 -3.61461 -34.86374 3.22012 4.93778 27.8775 -15.58696 8.12087 11.09813 82.36957 0.16559 1.4774 29.74279 2.70622 -8.86399 8.24507 -77.26183 -4.35803 -1.21015 1.04481 2.12756 10.51948 -19.75836 10.96963 -8.77625 -12.71081 -1.04179 -3.048 -4.62506 -13.78814 7.89365 6.52045 11.02474
0.0047 0.57937 -0.00286 179.3229 0 3.04316 6.36508 -1.01667 -3.63568 -34.60088 3.16996 4.89971 27.65455 -15.50827 8.14135 11.09943 82.37889 0.15858 1.47947 29.51219 2.79386 -8.91835 8.25068 -77.35254 -4.37984 -1.23231 1.08249 2.14191 10.56242 -19.77357 10.95164 -8.77006 -12.73759 -1.00242 -3.03464 -4.57629 -13.80783 7.89026 6.5173 10.98439
0.00502 0.57938 -0.00299 179.30999 0 3.04737 6.31158 -1.00582 -3.65332 -34.3338 3.12207 4.86441 27.42619 -15.43337 8.16462 11.0966 82.38861 0.153 1.4831 29.27776 2.8773 -8.9805 8.25552 -77.42679 -4.4001 -1.25305 1.12191 2.15604 10.6053 -19.78973 10.93456 -8.76298 -12.76062 -0.96415 -3.02196 -4.53051 -13.82552 7.88551 6.51308 10.95085
0.00535 0.57939 -0.00312 179.29496 0 3.05001 6.25968 -0.9937 -3.67355 -34.09826 3.07496 4.83271 27.23049 -15.36175 8.18198 11.09331 82.39919 0.1472 1.49002 29.07633 2.95314 -9.01156 8.25337 -77.51588 -4.41886 -1.27987 1.15778 2.17111 10.65193 -19.79846 10.91515 -8.75554 -12.78447 -0.92205 -3.0099 -4.48881 -13.85153 7.88233 6.51457 10.92764
